<svg width="19" height="19" fill="none" xmlns="http://www.w3.org/2000/svg"><path d="m17.672 5.034-2.08-1.2-1.199-2.078h-2.4L9.914.556l-2.078 1.2h-2.4l-1.2 2.079-2.079 1.2v2.4l-1.2 2.078 1.2 2.079v2.4l2.079 1.2 1.2 2.078h2.4l2.078 1.2 2.08-1.2h2.4l1.2-2.079 2.078-1.2v-2.4l1.2-2.078-1.2-2.079v-2.4ZM9.106 13.18a.837.837 0 0 1-.606.245.837.837 0 0 1-.606-.245l-2.62-2.62a.84.84 0 0 1 0-1.188l.693-.694a.84.84 0 0 1 1.19 0L8.5 10.021l4.172-4.173a.84.84 0 0 1 1.189 0l.694.694a.84.84 0 0 1 0 1.188l-5.45 5.45Z" fill="#27AE60"/></svg>