<svg width="19" height="15" fill="none" xmlns="http://www.w3.org/2000/svg"><path d="M18.791 3.74a12.65 12.65 0 0 0-.24-1.24 3.372 3.372 0 0 0-.474-1.12c-.21-.306-.446-.46-.705-.46-.03-.13-.175-.115-.435.045s-.382.214-.365.16c.017-.053-.074.013-.27.2l-.295.28-.295.295c-.26.246-.638.435-1.134.565-.497.13-1.042.21-1.635.24s-1.188.05-1.784.06c-.597.01-1.195.04-1.795.09-.6.05-1.083.134-1.45.254a9.346 9.346 0 0 0-2.039.955 8.726 8.726 0 0 0-1.704 1.39c-.503.53-.9 1.144-1.19 1.844a5.69 5.69 0 0 0-.435 2.2c0 .353.03.7.09 1.04.014.066.067.213.16.44.094.226.14.352.14.38 0 .126-.103.286-.31.479a7.17 7.17 0 0 1-.68.56c-.246.18-.472.398-.68.654-.206.257-.309.502-.309.735a.595.595 0 0 0 .045.23c.01.02.028.053.055.1a4.402 4.402 0 0 0 .33.53c.067.086.17.166.31.24.14.073.31.11.51.11.193 0 .393-.107.6-.32a3.44 3.44 0 0 0 .524-.7c.144-.253.294-.486.45-.7.157-.213.288-.32.395-.32.153 0 .473.124.96.37.486.247.78.387.88.42.92.314 1.872.47 2.858.47 1.493 0 2.953-.36 4.38-1.08 1.459-.726 2.65-1.619 3.573-2.679.923-1.06 1.538-2.336 1.845-3.829a9.65 9.65 0 0 0 .2-1.929 7.27 7.27 0 0 0-.08-.96Zm-5.228 3.388a.615.615 0 0 1-.45.19c-1.213 0-2.258.174-3.134.52-.877.346-1.771.933-2.684 1.76a43.42 43.42 0 0 0-.67.66c-.313.313-.56.549-.74.709a.661.661 0 0 1-.45.19.615.615 0 0 1-.45-.19.614.614 0 0 1-.19-.45c0-.16.064-.31.19-.45.813-.9 1.598-1.631 2.355-2.194a9.325 9.325 0 0 1 2.594-1.34c.973-.33 2.032-.494 3.179-.494.173 0 .323.063.45.19.126.126.19.276.19.45a.615.615 0 0 1-.19.45Z" fill="#27AE60"/></svg>